<svg xmlns="http://www.w3.org/2000/svg" width="1200" height="560" viewBox="0 0 1200 560" role="img" aria-labelledby="title">
<title id="title">Irfan Mahmood. Earth data. Real-world impact. Remote sensing, GIS and software.</title>
<rect width="1200" height="560" rx="24" fill="#102A43"/>
<g font-family="Arial, Helvetica, sans-serif"><rect x="34" y="34" width="44" height="44" rx="12" fill="#CEF2A2"/><text x="43" y="64" font-size="23" fill="#102A43" font-weight="700" >IM</text><text x="95" y="63" font-size="20" fill="#F5F4EE" font-weight="700" letter-spacing="2">IRFAN MAHMOOD</text><text x="803" y="62" font-size="16" fill="#ACC7CE" font-weight="500" letter-spacing="1">EARTH OBSERVATION &amp; DEVELOPMENT</text><text x="44" y="143" font-size="18" fill="#ACC7CE" font-weight="600" letter-spacing="2">REMOTE SENSING  /  GIS  /  SOFTWARE</text><text x="39" y="245" font-size="82" fill="#F5F4EE" font-weight="700" letter-spacing="-4">Earth data.</text><text x="39" y="337" font-size="82" fill="#CEF2A2" font-weight="700" letter-spacing="-4">Real-world impact.</text><text x="44" y="397" font-size="25" fill="#DBE8EA" font-weight="400" >From satellite observations to science and useful software.</text><circle cx="956" cy="276" r="128" fill="#163D53" stroke="#598E95" stroke-width="1.3"/><g fill="none" stroke="#598E95" stroke-width="1" opacity=".6"><ellipse cx="956" cy="276" rx="38.4" ry="128"/><ellipse cx="956" cy="276" rx="79.36" ry="128"/><path d="M 858.7284214171477 192.8 Q 956 203.104 1053.2715785828523 192.8"/><path d="M 834.7305545489714 235.04 Q 956 255.05919999999998 1077.2694454510286 235.04"/><path d="M 828.0 276 Q 956 305.44 1084.0 276"/><path d="M 834.7305545489714 316.96 Q 956 336.9792 1077.2694454510286 316.96"/><path d="M 858.7284214171477 359.2 Q 956 369.50399999999996 1053.2715785828523 359.2"/><path d="M956 148V404"/></g><ellipse cx="956" cy="276" rx="167.68" ry="46.08" transform="rotate(-32 956 276)" fill="none" stroke="#CEF2A2" stroke-width="2"/><circle cx="1094.24" cy="209.44" r="7" fill="#CEF2A2"/><circle cx="845.92" cy="364.32" r="5" fill="#F3A785"/><circle cx="956" cy="276" r="185.6" fill="none" stroke="#416377" stroke-dasharray="2 12"/><path d="M44 471H1156" stroke="#365064"/><text x="44" y="520" font-size="19" fill="#ACC7CE" font-weight="600" letter-spacing="2">LAND  /  OCEAN  /  ATMOSPHERE</text><text x="785" y="520" font-size="18" fill="#F5F4EE" font-weight="700" letter-spacing="1">OBSERVE. UNDERSTAND. BUILD.</text></g>
</svg>
